<svg viewBox="0 0 170 150" fill="none" xmlns="http://www.w3.org/2000/svg">
    <path fill-rule="evenodd" clip-rule="evenodd"
          d="M133.125 7.50004C126.253 7.50004 120.682 13.0711 120.682 19.9433C120.682 26.8155 126.253 32.3865 133.125 32.3865C139.997 32.3865 145.568 26.8155 145.568 19.9433C145.568 13.0711 139.997 7.50004 133.125 7.50004ZM113.182 19.9433C113.182 8.92894 122.11 0 133.125 0C144.14 0 153.068 8.92894 153.068 19.9433C153.068 30.9577 144.14 39.8865 133.125 39.8865C122.11 39.8865 113.182 30.9577 113.182 19.9433Z"
          fill="currentColor"/>
    <path fill-rule="evenodd" clip-rule="evenodd"
          d="M103.935 32.3863C104.69 32.3777 105.429 32.5971 106.058 33.0158L134.261 51.8179H157.406C163.954 51.8179 169.262 57.1255 169.262 63.6738C169.262 70.2214 163.954 75.5291 157.406 75.5291H126.649C126.168 75.5291 125.692 75.4369 125.245 75.2569L117.84 72.2696L102.923 87.3147L112.975 96.4392C113.758 97.1502 114.205 98.1582 114.205 99.2157V138.154C114.205 144.696 108.901 150 102.358 150C95.8159 150 90.5118 144.696 90.5118 138.154V111.34L81.8185 105.028V115.233C81.8185 121.447 76.7815 126.483 70.5684 126.483H34.0891C27.6886 126.483 22.5 121.294 22.5 114.894C22.5 108.493 27.6886 103.305 34.0891 103.305H58.1252V88.8859C58.1252 85.9782 59.2506 83.1844 61.2657 81.0882L85.4538 55.9316H78.8718L56.7293 65.8781C52.9811 67.5618 48.6139 67.0743 45.3289 64.6061C38.7508 59.6636 39.5054 49.5686 46.7454 45.6589L69.8093 33.2039C70.344 32.9151 70.9409 32.7606 71.5487 32.7537L103.935 32.3863ZM72.559 40.2428L50.3091 52.2582C47.882 53.5689 47.629 56.953 49.8343 58.6098C50.9355 59.4378 52.3996 59.6005 53.6561 59.0365L76.5318 48.7608C77.0148 48.5438 77.539 48.4316 78.0685 48.4316H94.2619C95.7649 48.4316 97.1231 49.3294 97.7119 50.7126C98.3006 52.0958 98.0066 53.697 96.9649 54.7807L66.6721 86.2864C66.0004 86.9854 65.6252 87.9169 65.6252 88.8859V107.055C65.6252 109.126 63.9463 110.805 61.8752 110.805H34.0891C31.8308 110.805 30 112.636 30 114.894C30 117.152 31.8308 118.983 34.0891 118.983H70.5684C72.6392 118.983 74.3185 117.304 74.3185 115.233V97.6707C74.3185 96.2607 75.109 94.97 76.3653 94.3295C77.6215 93.689 79.1313 93.8075 80.272 94.6362L96.4654 106.395C97.4366 107.1 98.0119 108.229 98.0119 109.429V138.154C98.0119 140.554 99.9581 142.5 102.358 142.5C104.759 142.5 106.705 140.554 106.705 138.154V100.876L94.9804 90.2345C94.2221 89.5467 93.7789 88.5792 93.7519 87.5562C93.7249 86.5332 94.1171 85.5439 94.8371 84.8172L114.27 65.2196C115.332 64.1471 116.935 63.8171 118.335 64.3818L127.376 68.0291H157.406C159.812 68.0291 161.762 66.0791 161.762 63.6738C161.762 61.2678 159.812 59.3178 157.406 59.3178H133.126C132.385 59.3178 131.662 59.0988 131.045 58.6878L102.861 39.899L72.559 40.2428Z"
          fill="currentColor"/>
    <path fill-rule="evenodd" clip-rule="evenodd"
          d="M22.5 11.25C22.5 9.17896 24.179 7.5 26.25 7.5H71.2502C73.321 7.5 75.0003 9.17896 75.0003 11.25C75.0003 13.3211 73.321 15 71.2502 15H26.25C24.179 15 22.5 13.3211 22.5 11.25Z"
          fill="currentColor"/>
    <path fill-rule="evenodd" clip-rule="evenodd"
          d="M0 78.7504C0 76.6796 1.67894 75.0004 3.75002 75.0004H30.0001C32.0712 75.0004 33.7502 76.6796 33.7502 78.7504C33.7502 80.8211 32.0712 82.5004 30.0001 82.5004H3.75002C1.67894 82.5004 0 80.8211 0 78.7504Z"
          fill="currentColor"/>
    <path fill-rule="evenodd" clip-rule="evenodd"
          d="M7.5 41.2502C7.5 39.1791 9.17896 37.5002 11.25 37.5002H33.7501C35.8212 37.5002 37.5001 39.1791 37.5001 41.2502C37.5001 43.3213 35.8212 45.0002 33.7501 45.0002H11.25C9.17896 45.0002 7.5 43.3213 7.5 41.2502Z"
          fill="currentColor"/>
</svg>
