<svg viewBox="0 0 157 150" fill="none" xmlns="http://www.w3.org/2000/svg">
    <path fill-rule="evenodd" clip-rule="evenodd"
          d="M41.6185 28.1686C29.4727 29.3106 20.1396 39.8703 20.1396 52.4743V55.5125C8.40265 59.2908 0 70.5978 0 83.815C0 97.0323 8.40265 108.332 20.1396 112.103V115.142C20.1396 127.992 29.8252 138.707 42.3023 139.511C45.3616 145.686 51.6072 150 58.9102 150C61.8845 149.992 64.8126 149.263 67.4436 147.876C70.0746 146.489 72.33 144.484 74.0166 142.034C75.7032 144.484 77.9586 146.489 80.5896 147.876C83.2206 149.263 86.1487 149.992 89.1231 150C96.426 150 102.672 145.686 105.731 139.511C118.208 138.707 127.894 127.992 127.894 115.142V112.111C139.631 108.332 148.033 97.0252 148.033 83.815C148.033 70.5978 139.631 59.2979 127.894 55.5195V52.4884C127.894 39.6377 118.208 28.9229 105.731 28.1193C102.672 21.9441 96.426 17.63 89.1231 17.63C86.1494 17.637 83.2217 18.3647 80.5907 19.7508C77.9598 21.1368 75.704 23.14 74.0166 25.5886C72.33 23.1387 70.0746 21.1342 67.4436 19.7468C64.8126 18.3595 61.8845 17.6308 58.9102 17.623C51.6707 17.623 45.4744 21.8525 42.3869 27.9501C42.1208 27.9928 41.8677 28.0661 41.6185 28.1686ZM49.6969 29.4586C52.2612 30.7175 54.4211 32.6703 55.9313 35.0951C57.4415 37.52 58.2415 40.3197 58.2405 43.1764C58.2405 44.1111 57.8692 45.0076 57.2082 45.6686C56.5472 46.3296 55.6507 46.701 54.7159 46.701C53.7811 46.701 52.8846 46.3296 52.2236 45.6686C51.5627 45.0076 51.1913 44.1111 51.1913 43.1764C51.1913 39.2288 48.4139 35.9298 44.706 35.1403L44.5087 35.1332C44.2739 35.121 44.0388 35.114 43.8037 35.1121C34.7455 35.1121 27.1888 42.7675 27.1888 52.4743V58.2194C27.1899 59.0289 26.9124 59.8142 26.4027 60.4433C25.8931 61.0723 25.1825 61.5067 24.3902 61.6735C14.5919 63.7389 7.0492 72.7901 7.0492 83.808C7.0492 94.8259 14.5848 103.877 24.3902 105.942C25.1825 106.109 25.8931 106.544 26.4027 107.173C26.9124 107.802 27.1899 108.587 27.1888 109.397V115.135C27.1888 124.369 34.0265 131.75 42.4926 132.447C42.6491 132.425 42.8068 132.413 42.9649 132.412C47.5116 132.412 51.1913 128.733 51.1913 124.193C51.1913 123.258 51.5627 122.362 52.2236 121.701C52.8846 121.04 53.7811 120.668 54.7159 120.668C55.6507 120.668 56.5472 121.04 57.2082 121.701C57.8692 122.362 58.2405 123.258 58.2405 124.193C58.2405 130.262 54.6948 135.507 49.5629 137.967C50.6034 139.49 51.997 140.738 53.6248 141.604C55.2526 142.471 57.0661 142.931 58.9102 142.944C65.184 142.944 70.492 137.629 70.492 130.805V36.8109C70.492 29.9873 65.191 24.6722 58.9102 24.6722C55.1953 24.6722 51.8328 26.5191 49.6969 29.4586ZM77.5412 36.8109V130.805C77.5412 137.629 82.8422 142.944 89.1231 142.944C92.7675 142.944 96.0665 141.167 98.2095 138.334C95.4016 137.186 92.9991 135.228 91.308 132.709C89.617 130.191 88.714 127.226 88.7142 124.193C88.7142 123.258 89.0856 122.362 89.7465 121.701C90.4075 121.04 91.304 120.668 92.2388 120.668C93.1736 120.668 94.0701 121.04 94.7311 121.701C95.3921 122.362 95.7634 123.258 95.7634 124.193C95.7634 128.733 99.4431 132.412 103.99 132.412C104.244 132.412 104.483 132.44 104.73 132.49C113.563 132.215 120.844 124.665 120.844 115.135V109.397C120.843 108.587 121.121 107.802 121.631 107.173C122.14 106.544 122.851 106.109 123.643 105.942C133.448 103.877 140.984 94.8259 140.984 83.808C140.984 72.7901 133.448 63.7389 123.643 61.6735C122.851 61.5067 122.14 61.0723 121.631 60.4433C121.121 59.8142 120.843 59.0289 120.844 58.2194V52.4743C120.844 42.7675 113.288 35.1121 104.23 35.1121C103.99 35.1121 103.757 35.1191 103.525 35.1332C103.231 35.1462 102.938 35.1225 102.65 35.0627C98.7452 35.6971 95.7634 39.0878 95.7634 43.1693C95.7634 44.1041 95.3921 45.0006 94.7311 45.6616C94.0701 46.3226 93.1736 46.6939 92.2388 46.6939C91.304 46.6939 90.4075 46.3226 89.7465 45.6616C89.0856 45.0006 88.7142 44.1041 88.7142 43.1693C88.7142 36.8391 92.5701 31.4042 98.0615 29.092C97.005 27.725 95.651 26.6165 94.1023 25.8507C92.5535 25.0849 90.8508 24.6819 89.1231 24.6722C82.8493 24.6722 77.5412 29.9873 77.5412 36.8109Z"
          fill="currentColor"/>
    <path fill-rule="evenodd" clip-rule="evenodd"
          d="M90.0748 72.057C90.0748 71.1222 90.4461 70.2257 91.1071 69.5647C91.7681 68.9037 92.6646 68.5324 93.5994 68.5324C104.892 68.5324 112.787 79.656 112.787 91.6397C112.787 93.98 112.505 96.2569 111.956 98.3999C111.726 99.3066 111.147 100.085 110.344 100.564C109.54 101.044 108.58 101.184 107.673 100.955C106.766 100.726 105.988 100.146 105.509 99.3432C105.029 98.5401 104.889 97.5796 105.118 96.6728C105.527 95.0938 105.738 93.402 105.738 91.6397C105.738 81.9964 99.6053 75.5816 93.5994 75.5816C92.6646 75.5816 91.7681 75.2102 91.1071 74.5493C90.4461 73.8883 90.0748 72.9918 90.0748 72.057ZM57.9586 72.057C57.9586 71.1222 57.5873 70.2257 56.9263 69.5647C56.2653 68.9037 55.3688 68.5324 54.434 68.5324C43.1412 68.5324 35.2461 79.656 35.2461 91.6397C35.2461 93.98 35.5281 96.2569 36.0779 98.3999C36.1913 98.8488 36.392 99.2711 36.6686 99.6425C36.9452 100.014 37.2922 100.327 37.6899 100.564C38.0875 100.802 38.528 100.958 38.9862 101.025C39.4444 101.092 39.9113 101.069 40.3603 100.955C40.8093 100.842 41.2315 100.641 41.6029 100.365C41.9743 100.088 42.2876 99.7409 42.5249 99.3432C42.7622 98.9456 42.9188 98.5051 42.9858 98.0469C43.0529 97.5887 43.029 97.1218 42.9156 96.6728C42.5022 95.0271 42.2938 93.3365 42.2953 91.6397C42.2953 81.9964 48.4281 75.5816 54.434 75.5816C55.3688 75.5816 56.2653 75.2102 56.9263 74.5493C57.5873 73.8883 57.9586 72.9918 57.9586 72.057ZM131.44 24.066C130.779 23.405 130.408 22.5087 130.408 21.5741C130.408 20.6395 130.779 19.7432 131.44 19.0822L138.919 11.61C139.24 11.2602 139.629 10.979 140.062 10.7833C140.495 10.5876 140.963 10.4815 141.438 10.4713C141.913 10.4612 142.385 10.5471 142.826 10.7241C143.267 10.9011 143.668 11.1654 144.004 11.5011C144.34 11.8368 144.605 12.2371 144.783 12.6778C144.961 13.1185 145.047 13.5906 145.038 14.0656C145.028 14.5407 144.923 15.0089 144.728 15.4422C144.533 15.8754 144.252 16.2648 143.903 16.5868L136.43 24.066C136.103 24.3942 135.714 24.6546 135.286 24.8323C134.858 25.01 134.399 25.1015 133.935 25.1015C133.471 25.1015 133.012 25.01 132.584 24.8323C132.156 24.6546 131.767 24.3942 131.44 24.066ZM138.926 38.7142C138.926 37.7795 139.297 36.883 139.958 36.222C140.619 35.561 141.516 35.1896 142.45 35.1896H153.024C153.959 35.1896 154.855 35.561 155.516 36.222C156.177 36.883 156.549 37.7795 156.549 38.7142C156.549 39.649 156.177 40.5455 155.516 41.2065C154.855 41.8675 153.959 42.2388 153.024 42.2388H142.45C141.516 42.2388 140.619 41.8675 139.958 41.2065C139.297 40.5455 138.926 39.649 138.926 38.7142ZM117.835 17.623C116.9 17.623 116.003 17.2517 115.342 16.5907C114.681 15.9297 114.31 15.0332 114.31 14.0984V3.5246C114.31 2.58982 114.681 1.69332 115.342 1.03233C116.003 0.371341 116.9 0 117.835 0C118.769 0 119.666 0.371341 120.327 1.03233C120.988 1.69332 121.359 2.58982 121.359 3.5246V14.0984C121.359 15.0332 120.988 15.9297 120.327 16.5907C119.666 17.2517 118.769 17.623 117.835 17.623Z"
          fill="currentColor"/>
</svg>
