<svg viewBox="0 0 151 150" fill="none" xmlns="http://www.w3.org/2000/svg">
    <path fill-rule="evenodd" clip-rule="evenodd"
          d="M109.687 20.2677C91.419 1.99984 61.8011 1.99984 43.5335 20.2677C25.2656 38.5356 25.2656 68.1538 43.5335 86.422C61.8014 104.69 91.4193 104.69 109.687 86.422C127.955 68.1539 127.955 38.5358 109.687 20.2677ZM38.8894 15.6243C59.7218 -5.2081 93.4977 -5.2081 114.33 15.6243C135.163 36.4567 135.163 70.2328 114.33 91.0653C93.498 111.898 59.7221 111.898 38.8894 91.0653C18.057 70.2329 18.057 36.4568 38.8894 15.6243Z"
          fill="currentColor"/>
    <path fill-rule="evenodd" clip-rule="evenodd"
          d="M43.5696 58.1423L71.8123 86.3845L34.0918 124.105C26.2927 131.904 13.6482 131.904 5.84922 124.105C-1.94974 116.306 -1.94974 103.662 5.84922 95.863L43.5696 58.1423ZM43.5696 67.4289L10.4926 100.506C5.25814 105.741 5.25814 114.228 10.4926 119.462C15.7271 124.696 24.2138 124.696 29.4483 119.462L62.5256 86.3845L43.5696 67.4289Z"
          fill="currentColor"/>
    <path fill-rule="evenodd" clip-rule="evenodd"
          d="M81.3669 105.225L24.729 48.5876L29.3724 43.9442L86.0103 100.582L81.3669 105.225Z"
          fill="currentColor"/>
    <path fill-rule="evenodd" clip-rule="evenodd"
          d="M127.704 110.599C118.637 110.599 111.287 117.95 111.287 127.016C111.287 136.083 118.637 143.433 127.704 143.433C136.771 143.433 144.121 136.083 144.121 127.016C144.121 117.95 136.771 110.599 127.704 110.599ZM104.72 127.016C104.72 114.323 115.01 104.033 127.704 104.033C140.397 104.033 150.688 114.323 150.688 127.016C150.688 139.71 140.397 150 127.704 150C115.01 150 104.72 139.71 104.72 127.016Z"
          fill="currentColor"/>
</svg>
