<svg viewBox="0 0 150 150" fill="none" xmlns="http://www.w3.org/2000/svg">
    <path fill-rule="evenodd" clip-rule="evenodd"
          d="M75.0001 65.2174C69.5975 65.2174 65.2175 69.5974 65.2175 75C65.2175 80.4026 69.5975 84.7826 75.0001 84.7826C80.4028 84.7826 84.7828 80.4026 84.7828 75C84.7828 69.5974 80.4028 65.2174 75.0001 65.2174ZM58.6958 75C58.6958 65.9955 65.9956 58.6957 75.0001 58.6957C84.0047 58.6957 91.3045 65.9955 91.3045 75C91.3045 84.0046 84.0047 91.3044 75.0001 91.3044C65.9956 91.3044 58.6958 84.0046 58.6958 75Z"
          fill="currentColor"/>
    <path fill-rule="evenodd" clip-rule="evenodd"
          d="M65.2174 9.78261C65.2174 4.3798 69.5974 0 75 0C80.4026 0 84.7826 4.3798 84.7826 9.78261V13.8119C111.168 17.9982 132.002 38.8324 136.188 65.2174H140.217C145.62 65.2174 150 69.5974 150 75C150 80.4026 145.62 84.7826 140.217 84.7826H136.188C132.002 111.168 111.168 132.002 84.7826 136.188V140.217C84.7826 145.62 80.4026 150 75 150C69.5974 150 65.2174 145.62 65.2174 140.217V136.188C38.8324 132.002 17.9982 111.168 13.8119 84.7826H9.78261C4.3798 84.7826 0 80.4026 0 75C0 69.5974 4.3798 65.2174 9.78261 65.2174H13.8119C17.9982 38.8324 38.8324 17.9982 65.2174 13.8119V9.78261ZM75 6.52174C73.1993 6.52174 71.7391 7.9817 71.7391 9.78261V16.6626C71.7391 18.3248 70.4889 19.7211 68.8363 19.9037C43.1476 22.7435 22.7435 43.1476 19.9037 68.8363C19.7211 70.4889 18.3248 71.7391 16.6626 71.7391H9.78261C7.9817 71.7391 6.52174 73.1993 6.52174 75C6.52174 76.8007 7.9817 78.2609 9.78261 78.2609H16.6626C18.3248 78.2609 19.7211 79.5111 19.9037 81.1637C22.7435 106.852 43.1476 127.257 68.8363 130.096C70.4889 130.279 71.7391 131.675 71.7391 133.338V140.217C71.7391 142.018 73.1993 143.478 75 143.478C76.8007 143.478 78.2609 142.018 78.2609 140.217V133.338C78.2609 131.675 79.5111 130.279 81.1637 130.096C106.852 127.257 127.257 106.852 130.096 81.1637C130.279 79.5111 131.675 78.2609 133.338 78.2609H140.217C142.018 78.2609 143.478 76.8007 143.478 75C143.478 73.1993 142.018 71.7391 140.217 71.7391H133.338C131.675 71.7391 130.279 70.4889 130.096 68.8363C127.257 43.1476 106.852 22.7435 81.1637 19.9037C79.5111 19.7211 78.2609 18.3248 78.2609 16.6626V9.78261C78.2609 7.9817 76.8007 6.52174 75 6.52174ZM70.6148 27.3465C71.3289 27.9659 71.7391 28.8648 71.7391 29.8102V35.8696C71.7391 37.6705 73.1993 39.1304 75 39.1304C76.8007 39.1304 78.2609 37.6705 78.2609 35.8696V29.8102C78.2609 28.8648 78.6711 27.9659 79.3852 27.3465C80.1 26.7271 81.0476 26.4483 81.9835 26.5822C103.411 29.6472 120.353 46.5886 123.418 68.0165C123.552 68.9524 123.273 69.9 122.654 70.6148C122.034 71.3289 121.135 71.7391 120.19 71.7391H114.13C112.33 71.7391 110.87 73.1993 110.87 75C110.87 76.8007 112.33 78.2609 114.13 78.2609H120.19C121.135 78.2609 122.034 78.6711 122.654 79.3852C123.273 80.1 123.552 81.0476 123.418 81.9835C120.353 103.411 103.411 120.353 81.9835 123.418C81.0476 123.552 80.1 123.273 79.3852 122.654C78.6711 122.034 78.2609 121.135 78.2609 120.19V114.13C78.2609 112.33 76.8007 110.87 75 110.87C73.1993 110.87 71.7391 112.33 71.7391 114.13V120.19C71.7391 121.135 71.3289 122.034 70.6148 122.654C69.9 123.273 68.9524 123.552 68.0165 123.418C46.5886 120.353 29.6472 103.411 26.5822 81.9835C26.4483 81.0476 26.7271 80.1 27.3465 79.3852C27.9659 78.6711 28.8648 78.2609 29.8102 78.2609H35.8696C37.6705 78.2609 39.1304 76.8007 39.1304 75C39.1304 73.1993 37.6705 71.7391 35.8696 71.7391H29.8102C28.8648 71.7391 27.9659 71.3289 27.3465 70.6148C26.7271 69.9 26.4483 68.9524 26.5822 68.0165C29.6472 46.5886 46.5886 29.6472 68.0165 26.5822C68.9524 26.4483 69.9 26.7271 70.6148 27.3465ZM33.7424 65.2174H35.8696C41.2724 65.2174 45.6522 69.5974 45.6522 75C45.6522 80.4026 41.2724 84.7826 35.8696 84.7826H33.7424C37.4159 100.336 49.6638 112.584 65.2174 116.258V114.13C65.2174 108.728 69.5974 104.348 75 104.348C80.4026 104.348 84.7826 108.728 84.7826 114.13V116.258C100.336 112.584 112.584 100.336 116.258 84.7826H114.13C108.728 84.7826 104.348 80.4026 104.348 75C104.348 69.5974 108.728 65.2174 114.13 65.2174H116.258C112.584 49.6638 100.336 37.4159 84.7826 33.7424V35.8696C84.7826 41.2724 80.4026 45.6522 75 45.6522C69.5974 45.6522 65.2174 41.2724 65.2174 35.8696V33.7424C49.6638 37.4159 37.4159 49.6638 33.7424 65.2174Z"
          fill="currentColor"/>
</svg>
