<svg width="817" height="853" viewBox="0 0 817 853" fill="none" xmlns="http://www.w3.org/2000/svg">
    <path d="M770.406 851.634C760.097 848.327 758.423 844.973 757.373 825.505C756.71 813.22 756.013 808.67 753.537 800.489C750.468 790.346 749.744 783.047 751.378 778.747C752.46 775.904 749.447 769.226 742.092 758.162C736.99 750.488 732.41 745.264 709.938 721.489C694.483 705.138 688.026 697.733 675.928 682.489C662.09 665.052 655.876 659.216 642.546 651.142C635.874 647.101 627.623 641.7 624.209 639.141C613.504 631.117 538.431 557.161 538.525 554.732C538.563 554.048 540.915 551.812 543.778 549.763C551.1 544.522 568.954 530.292 573.977 525.695C575.077 524.688 578.759 521.82 582.161 519.32C585.562 516.821 588.565 514.2 588.836 513.496C589.915 510.684 582.571 514.16 564.977 524.789C540.45 539.605 535.947 542.227 529.71 545.317C515.991 552.116 506.477 555.086 490.564 557.539C478.906 559.335 473.571 559.323 461.477 557.471C447.627 555.351 444.065 554.514 432.227 550.595C420.783 546.806 413.474 543.432 406.797 538.854C404.498 537.278 402.248 535.959 401.797 535.923C401.346 535.885 398.952 534.332 396.477 532.469C388.276 526.296 381.348 521.785 380.843 522.29C379.988 523.144 393.666 536.202 401.929 542.42L409.81 548.352L399.793 558.02C384.155 573.11 370.199 583.803 340.477 603.466C325.352 613.473 311.3 623.397 309.251 625.52C303.291 631.696 300.976 637.494 294.491 662.489C288.982 683.724 280.958 699.188 265.434 718.489C257.389 728.491 237.139 755.916 232.865 762.596C228.147 769.972 224.779 777.408 222.914 784.567C221.506 789.975 221.546 790.867 223.56 798.911C226.587 811.009 226.838 830.217 224.023 834.375C221.132 838.645 216.689 840.006 203.663 840.615C195.601 840.992 189.258 841.934 183.213 843.653C159.855 850.295 135.297 850.741 121.477 844.776C115.666 842.268 113.962 839.58 114.08 833.113C114.273 822.668 118.789 817.641 131.707 813.502C143.67 809.669 152.053 804.278 163.717 792.918C173.83 783.068 178.077 779.989 181.554 779.989C184.37 779.989 189.348 775.162 191.576 770.272C192.703 767.798 195.646 759.41 198.116 751.632C211.841 708.414 216.356 695.256 224.413 674.989C231.849 656.283 237.395 643.344 243.701 629.989C245.908 625.314 248.835 619.014 250.205 615.989C258.862 596.869 271.275 572.974 277.22 563.981C284.956 552.28 300.043 532.821 318.305 510.989C324.976 503.014 330.443 496.011 330.455 495.426C330.455 494.841 329.126 493.07 327.477 491.489C325.827 489.908 324.485 487.911 324.494 487.052C324.532 485.028 332.693 475.666 353.371 453.989C377.001 429.216 385.674 419.365 388.366 414.239C389.902 411.313 390.456 411.387 395.089 415.131C400.608 419.59 417.521 427.379 427.192 429.914C431.867 431.14 439.84 432.264 445.692 432.524L455.976 432.979L449.477 430.896C445.902 429.751 438.702 427.476 433.477 425.84C420.294 421.714 402.853 413.059 396.948 407.714L392.067 403.294L393.254 397.392C393.906 394.145 395.108 388.564 395.924 384.989C399.106 371.04 397.223 349.597 391.994 340.242C390.594 337.735 389.644 335.488 389.885 335.247C390.127 335.007 392.945 336.609 396.15 338.808C402.193 342.954 408.585 349.268 416.985 359.384C419.677 362.627 422.044 364.788 422.244 364.187C422.701 362.817 413.973 349.743 406.423 340.489C397.828 329.953 381.261 314.298 369.477 305.576C350.729 291.7 350.097 290.74 344.047 266.989C342.157 259.564 339.904 250.88 339.043 247.69C338.182 244.501 337.477 241.688 337.477 241.44C337.477 240.034 333.026 241.728 320.265 247.989C312.418 251.839 304.749 254.989 303.221 254.989C300.126 254.989 299.451 253.803 295.539 241.489C292.779 232.803 285.281 219.193 280.258 213.753C278.179 211.5 276.477 210.091 276.477 210.622C276.477 211.154 276.884 212.016 277.383 212.539C279.689 214.958 289.67 234.216 292.403 241.521C293.543 244.569 294.477 248.346 294.477 249.914C294.477 252.538 293.863 253.007 286.727 255.833C271.523 261.854 256.477 266.042 235.977 269.96C229.927 271.117 222.805 272.496 220.15 273.026C208.369 275.377 203.669 273.981 190.477 264.211C167.244 247.005 159.675 238.695 139.723 208.489C131.731 196.389 122.962 184.042 120.236 181.051C117.51 178.06 112.638 172.142 109.408 167.899C98.7481 153.895 91.6225 148.272 84.2755 148.065C80.5534 147.96 72.5528 150.151 62.5617 154.011C57.9333 155.799 52.5295 157.262 50.5532 157.262C45.8456 157.262 36.19 152.328 28.7039 146.098C9.753 130.327 -2.76183 99.8583 0.523333 77.489C3.98236 53.9374 19.4228 39.8669 41.7897 39.8831C69.3102 39.902 98.439 68.1669 104.575 100.804C105.961 108.175 105.27 123.582 103.288 129.489C101.994 133.344 101.787 133.489 97.5553 133.489C95.1405 133.489 92.9919 133.993 92.7806 134.61C92.205 136.289 102.624 140.825 110.977 142.533C114.063 143.164 120.822 149.629 135.291 165.792C139.314 170.285 145.409 176.037 148.837 178.574C154.242 182.575 175.554 196.055 178.15 197.115C181.388 198.438 201.319 211.061 207.977 216.006C212.377 219.275 216.751 221.958 217.697 221.969C218.643 221.98 221.793 220.904 224.697 219.578C227.601 218.252 235.937 214.846 243.223 212.009C257.714 206.366 266.246 202.139 279.977 193.801C309.197 176.057 337.758 162.691 341.505 165.006C342.605 165.686 342.612 168.732 341.546 182.829C340.84 192.181 340.555 200.307 340.913 200.888C341.291 201.499 343.852 199.62 347.003 196.417C352.789 190.538 360.278 186.474 363.462 187.484C364.524 187.822 368.424 191.561 372.128 195.793C383.082 208.31 391.816 216.989 393.458 216.989C394.413 216.989 397.37 212.357 401.28 204.739C410.172 187.412 412.251 183.888 415.586 180.489C418.362 177.659 418.951 177.496 425.953 177.611C431.572 177.704 434.255 178.251 436.984 179.861C443.137 183.491 443.687 183.02 442.964 174.739C441.738 160.699 439.368 149.449 435.856 141.001C433.91 136.319 432.08 131.497 431.789 130.285C431.186 127.77 431.989 127.485 442.476 126.486C446.051 126.146 452.351 125.172 456.476 124.322C468.174 121.912 478.678 122.404 500.976 126.406C532.124 131.996 533.48 132.289 534.627 133.671C535.423 134.631 534.926 137.012 532.734 142.731C531.098 146.998 529.222 152.164 528.564 154.211C526.674 160.087 526.058 177.56 527.46 185.489C529.822 198.842 529.844 199.739 527.823 200.366C526.808 200.681 521.036 200.538 514.997 200.047C508.957 199.557 503.669 199.37 503.246 199.632C502.187 200.286 502.281 209.519 503.413 216.072C503.927 219.051 504.866 225.989 505.499 231.489C506.815 242.928 507.703 247.574 513.34 272.489C515.581 282.389 517.923 292.964 518.547 295.989C520.15 303.768 525.185 319.498 527.567 324.166C530.749 330.404 535.822 337.876 542.381 345.989C549.931 355.325 554.652 364.173 559.511 378.087C562.269 385.985 562.975 389.14 562.131 389.786C561.496 390.272 557.605 391.252 553.485 391.963C546.059 393.245 537.876 395.798 521.476 401.948C516.801 403.701 509.006 406.45 504.153 408.056C499.301 409.663 494.351 411.672 493.154 412.522C491.091 413.985 491.213 414.035 495.476 413.471C499.798 412.899 502.647 412.336 512.476 410.11C529.604 406.231 539.757 404.989 554.326 404.989C563.056 404.989 566.57 405.366 568.15 406.473C569.315 407.289 571.95 411.226 574.006 415.222C578.583 424.118 615.493 480.641 625.909 494.706C630.071 500.326 633.481 505.276 633.486 505.706C633.486 506.137 632.034 507.689 630.25 509.155L627.005 511.822L628.944 517.655C630.01 520.864 631.189 524.164 631.563 524.989C631.937 525.814 632.685 527.614 633.226 528.989C633.766 530.364 634.703 532.614 635.307 533.989C635.911 535.364 639.111 542.884 642.418 550.701C650.635 570.118 658.506 586.575 662.684 593.069C667.455 600.484 672.303 605.241 684.004 613.986C700.701 626.465 711.432 638.375 720.498 654.489C726.597 665.33 739.341 691.585 747.679 710.489C757.44 732.618 765.031 744.686 771.169 747.835C773.213 748.884 776.256 751.785 777.931 754.283C779.606 756.78 783.141 761.673 785.786 765.156C790.024 770.737 795.357 780.342 809.568 807.989C814.627 817.831 816.784 826.531 816.299 835.133C815.716 845.436 812.592 848.705 800.582 851.577C793.829 853.192 775.372 853.227 770.406 851.634ZM499.718 532.764C503.426 531.378 508.973 528.724 512.045 526.866C518.728 522.825 532.477 510.402 532.477 508.405C532.477 506.504 531.465 506.652 528.477 508.989C527.102 510.065 525.596 510.954 525.131 510.967C524.666 510.978 523.044 511.874 521.525 512.955C516.528 516.513 501.113 523.722 493.477 526.071C487.269 527.981 483.737 528.377 472.977 528.37C461.884 528.363 458.437 527.949 449.477 525.542C436.284 522 433.003 521.414 433.827 522.746C435.374 525.25 452.455 532.253 462.477 534.492C472.795 536.798 491.216 535.943 499.718 532.764ZM537.862 349.175C538.138 348.727 535.128 344.838 531.171 340.533C520.533 328.96 515.944 322.562 510.694 311.989C508.1 306.764 505.348 301.829 504.58 301.021C501.659 297.95 505.002 312.666 509.437 322.403C515.374 335.434 534.955 353.878 537.862 349.175ZM649.529 319.771C648.733 318.516 644.908 311.393 641.029 303.942C631.672 285.97 631.85 286.243 630.431 287.647C629.538 288.531 629.916 290.694 632.024 296.771C635.136 305.743 634.856 308.285 630.811 307.806C627.716 307.44 625.874 304.593 622.493 294.959C620.462 289.172 610.836 270.446 608.242 267.239C606.309 264.848 604.636 266.026 601.28 272.141C597.652 278.754 594.772 281.408 592.649 280.095C591.596 279.445 591.95 277.103 594.418 268.386C599.141 251.706 599.789 249.568 600.448 248.489C601.228 247.214 603.028 241.701 604.448 236.239C605.738 231.282 604.089 221.084 599.477 205.489C598.989 203.839 598.167 200.914 597.651 198.989C596.117 193.269 594.713 190.294 593.289 189.747C591.949 189.233 580.338 189.898 554.031 191.996C546.362 192.608 539.052 192.848 537.787 192.531C532.642 191.239 529.713 175.162 531.943 160.448C534.067 146.437 536.359 139.355 539.112 138.299C540.028 137.947 545.997 138.647 552.377 139.853C571.156 143.404 573.441 143.8 584.977 145.507C597.068 147.296 610.949 150.453 615.993 152.56C621.325 154.788 625.621 159.088 628.377 164.954L630.977 170.489L631.014 203.989C631.014 226.246 631.411 238.329 632.146 239.993C633.863 243.877 644.551 257.872 650.568 264.114C654.365 268.054 658.749 271.149 665.198 274.444C670.88 277.347 674.648 279.912 675.039 281.144C675.903 283.866 675.001 284.489 670.239 284.489C667.995 284.489 666 284.963 665.807 285.541C665.614 286.12 666.859 288.714 668.577 291.307C670.853 294.743 671.529 296.694 671.075 298.505C670.387 301.247 668.981 301.551 664.787 299.864C658.721 297.426 656.831 296.443 652.741 293.603C650.405 291.98 648.212 290.934 647.868 291.278C647.524 291.622 648.466 294.96 649.962 298.696C654.567 310.196 655.616 313.951 655.297 317.791C654.923 322.306 651.826 323.371 649.542 319.771H649.529ZM385.609 205.121C377.484 196.997 370.808 186.606 366.57 175.489C365.311 172.189 363.919 168.589 363.474 167.489C363.03 166.389 361.267 161.883 359.555 157.475C355.79 147.783 353.338 143.599 350.223 141.558C348.052 140.136 347.154 140.246 338.43 143.004C327.927 146.324 322.777 146.713 318.516 144.509C314.567 142.467 311.477 138.262 311.477 134.931C311.477 133.386 310.316 130.763 308.874 129.049C307.368 127.259 306.125 124.384 305.923 122.223C304.862 110.859 304.086 108.541 300.823 106.989C295.534 104.474 295.196 102.985 298.049 94.7815C302.738 81.2958 303.664 76.8078 303.056 70.4891C301.349 52.7518 301.28 49.6109 302.463 43.7205C304.089 35.6235 310.419 22.4919 314.981 17.7524C322.853 9.57399 333.957 3.94868 347.251 1.40543C362.222 -1.45907 373.052 -0.0520949 387.361 6.61613C392.522 9.02108 397.114 10.989 397.566 10.989C398.018 10.989 400.969 9.1808 404.124 6.97069C413.533 0.379947 422.147 -1.39369 430.549 1.52977C436.533 3.61229 438.2 5.17041 444.414 14.4889C451.419 24.9934 453.973 27.6613 459.977 30.7388C464.197 32.9021 466.303 33.2995 473.477 33.2864C483.032 33.2675 488.891 31.7818 499.804 26.6028C509.436 22.0322 515.158 20.6491 522.231 21.1822C530.975 21.8412 537.255 25.461 542.383 32.7967C545.339 37.0255 544.429 37.9676 540.544 34.6994C538.885 33.3032 535.877 31.6164 533.86 30.9508C528.572 29.2053 517.917 30.2092 512.528 32.9607C505.66 36.4676 497.477 42.1466 497.477 43.4059C497.477 44.2038 500.601 44.4238 508.029 44.1489C527.341 43.434 537.974 48.778 541.466 60.9535C542.61 64.9412 540.629 65.0383 537.744 61.136C531.321 52.4487 512.139 51.4219 491.546 58.6631C482.941 61.6888 483.826 62.9889 494.49 62.9889C506.072 62.9889 513.81 65.122 518.218 69.5299C521.181 72.4927 522.466 76.6659 520.899 78.2329C520.582 78.5504 518.219 77.5043 515.649 75.9083C507.865 71.074 500.831 71.0007 476.062 75.4961C464.882 77.5251 456.264 76.3591 445.831 71.4061C435.345 66.4282 430.804 60.945 426.503 48.0671C423.082 37.8225 419.863 32.9889 416.463 32.9889C413.099 32.9889 412.325 35.3231 413.431 42.1373C414.9 51.1913 414.72 68.9603 413.095 75.19C412.335 78.1043 409.86 85.8466 407.595 92.3951C401.262 110.706 401.692 112.925 414.548 128.236C420.699 135.563 421.365 137.611 419.48 143.418C408.647 176.787 405.773 184.515 399.901 196.064C392.42 210.776 391.712 211.225 385.609 205.121ZM105.523 198.239C98.7444 187.171 97.5531 185.829 95.1954 186.6C91.9302 187.667 84.0952 187.39 81.7292 186.124C79.3515 184.852 74.4767 175.632 74.4767 172.408C74.4767 171.119 73.3455 169.485 71.7267 168.434C70.2142 167.452 68.4449 165.906 67.7952 164.998C67.1455 164.09 64.7542 162.79 62.4816 162.109C60.1122 161.399 58.5181 160.363 58.7445 159.68C58.96 159.025 62.4774 157.177 66.5578 155.573C72.4569 153.254 75.6287 152.64 82.0418 152.573C92.389 152.465 94.4841 153.835 104.481 167.247C108.604 172.777 114.789 180.632 118.227 184.701C121.664 188.771 124.477 192.969 124.477 194.032C124.477 195.421 122.516 196.951 117.502 199.477C113.666 201.408 110.056 202.989 109.48 202.989C108.904 202.989 107.124 200.851 105.523 198.239Z"
          fill="#8b5cf6"/>
</svg>
