<svg width="163" height="37" viewBox="0 0 163 37" fill="none" xmlns="http://www.w3.org/2000/svg">
<g clip-path="url(#clip0_19_122)">
<path d="M163 13.7585L158.977 26.1764V36.7659H150.502V26.1022L146.514 13.7585H154.109L156.34 20.7217L158.614 13.7585H163Z" fill="#222023"/>
<path d="M145.825 13.7584L140.114 36.7658H139.6L133.754 24.3174L127.91 36.7658H127.401L121.665 13.7584H129.479L130.89 19.7955L133.557 13.5637H133.925L136.793 19.7955L138.022 13.7584H145.825Z" fill="#222023"/>
<path d="M99.2408 18.6243H94.3329V36.7623H85.8431V18.6243H80.9678V13.7592H99.2408V18.6243Z" fill="#222023"/>
<path d="M17.4754 30.7841C17.4754 34.3777 14.1543 36.7651 9.82178 36.7651H1.56449V31.9641H5.78486C7.24712 31.9641 7.96595 31.0945 7.96595 29.9764C7.96595 29.0633 7.05285 28.3429 6.12538 27.5657L4.60652 26.2986C2.61821 24.6447 1.05371 23.2262 1.05371 20.2638C1.05371 16.0602 4.17753 13.7571 8.56164 13.7571H16.7007V18.5611H12.7152C11.3174 18.5611 10.7116 19.4226 10.7116 20.2638C10.7116 21.067 11.008 21.549 11.8667 22.2746L14.6993 24.6832C16.3406 26.0855 17.4754 27.7424 17.4754 30.7841Z" fill="#222023"/>
<path d="M117.298 25.1739C117.298 21.4116 114.445 18.2804 110.677 18.2804C106.919 18.2804 104.061 21.4116 104.061 25.1739C104.061 28.9471 106.919 32.1065 110.677 32.1065C114.445 32.1065 117.298 28.9471 117.298 25.1739ZM122.549 25.2356C122.549 31.7445 117.19 37 110.703 37C104.225 37 98.8716 31.7445 98.8716 25.2356C98.8716 18.7239 104.225 13.448 110.703 13.448C117.19 13.448 122.549 18.7239 122.549 25.2356Z" fill="#222023"/>
<path d="M74.634 21.7577C74.634 20.0319 73.2455 18.66 71.5383 18.652V24.8918C73.2455 24.8766 74.634 23.4763 74.634 21.7577ZM82.8628 36.7666H76.0375L71.5383 29.8623V36.7666H63.0586V13.7564H71.9397C76.5332 13.7564 79.823 17.0154 79.823 21.5578C79.823 24.1612 78.5882 26.1336 76.6636 27.5875L82.8628 36.7666Z" fill="#222023"/>
<path d="M55.9733 25.1739C55.9733 21.4116 53.1073 18.2804 49.3522 18.2804C45.5965 18.2804 42.7313 21.4116 42.7313 25.1739C42.7313 28.9471 45.5965 32.1065 49.3522 32.1065C53.1073 32.1065 55.9733 28.9471 55.9733 25.1739ZM61.2211 25.2356C61.2211 31.7445 55.8704 37 49.3777 37C42.8922 37 37.5415 31.7445 37.5415 25.2356C37.5415 18.7239 42.8922 13.448 49.3777 13.448C55.8704 13.448 61.2211 18.7239 61.2211 25.2356Z" fill="#222023"/>
<path d="M30.7216 21.7577C30.7216 20.0521 29.3666 18.6884 27.6846 18.652V24.8918C29.3666 24.8533 30.7216 23.4479 30.7216 21.7577ZM35.9108 21.7577C35.9108 26.1743 32.352 29.783 27.9448 29.783H27.6846V36.7666H19.1948V13.7564H27.9448C32.352 13.7564 35.9108 17.3311 35.9108 21.7577Z" fill="#222023"/>
<path d="M142.589 10.4245L141.531 12.3764H139.606L140.334 10.5633H135.595L134.335 7.52161H134.243L132.719 10.5633H130.368L135.537 0.902252H135.695L140.823 10.4245H142.589Z" fill="#222023"/>
<path d="M121.719 10.5626H112.828V1.31955H117.207V7.97949H121.719V10.5626Z" fill="#222023"/>
<path d="M101.478 10.7756H101.296L99.6829 9.47791C98.7959 10.101 97.8786 10.7059 95.8257 10.7059C93.2894 10.7059 91.0068 9.2387 91.0068 5.92583C91.0068 3.13998 92.9394 1.13492 95.8822 1.13492C97.554 1.13492 98.5714 1.76809 99.1669 2.3962L97.1423 4.34313C96.9633 4.20205 96.6844 4.09664 96.2989 4.09664C95.401 4.09664 94.7416 4.69933 94.7416 5.90249C94.7416 6.78438 95.4524 7.57468 96.4952 7.57468C97.1982 7.57468 97.643 7.36165 98.0524 7.09776L98.0677 4.99741H101.478V10.7756Z" fill="#222023"/>
<path d="M78.5556 10.5626H69.4448V1.31955H78.5556V3.88359H73.8057V4.73575H78.5556V7.126H73.8057V7.97949H78.5556V10.5626Z" fill="#222023"/>
<path d="M55.284 1.53112L51.4188 7.97891H55.0485V10.5611H45.5776V10.3947L49.3175 3.88287H45.6978V1.32031H55.284V1.53112Z" fill="#222023"/>
<path d="M157.992 5.92658C157.992 4.75673 157.064 3.8851 155.913 3.8851H155.177V7.97817H155.913C157.064 7.97817 157.992 7.07815 157.992 5.92658ZM161.371 5.93966C161.371 8.49865 159.36 10.5611 156.466 10.5611H150.821V1.32031H156.466C159.38 1.32031 161.371 3.38781 161.371 5.93966Z" fill="#222023"/>
<path d="M30.0397 4.599C30.0397 4.00136 29.623 3.53975 28.8917 3.53975H28.1121V5.68887H28.907C29.7251 5.68887 30.0397 5.19664 30.0397 4.599ZM34.1889 10.5618H30.6382L28.1121 7.72292V10.5618H23.7461V1.32166H29.3034C31.4816 1.32166 32.9055 2.7881 32.9055 4.599C32.9055 5.74254 32.2889 6.76328 31.333 7.35066L34.1889 10.5618Z" fill="#222023"/>
<path d="M8.76026 4.599C8.76026 4.00136 8.34135 3.53975 7.61244 3.53975H6.82545V5.68887H7.63556C8.4559 5.68887 8.76026 5.19664 8.76026 4.599ZM11.6131 4.599C11.6131 6.42016 10.1305 7.88214 8.01668 7.88214H6.82545V10.5618H2.46387V1.32166H8.01668C10.2044 1.32166 11.6131 2.7881 11.6131 4.599Z" fill="#222023"/>
<path d="M141.918 9.53024L140.86 11.4641H138.934L139.648 9.65898H134.932L133.658 6.61207H133.571L132.045 9.65898H129.698L134.865 0H135.026L140.134 9.53024H141.918Z" fill="#CF261F"/>
<path d="M121.055 9.65824H112.159V0.422363H116.53V7.08097H121.055V9.65824Z" fill="#CF261F"/>
<path d="M100.809 9.88362H100.625L99.0171 8.58591C98.117 9.20377 97.2121 9.80646 95.1468 9.80646C92.6156 9.80646 90.333 8.33719 90.333 5.0206C90.333 2.23847 92.2555 0.232666 95.2003 0.232666C96.8743 0.232666 97.9026 0.863753 98.5055 1.49692L96.4707 3.44385C96.2967 3.29771 96.0106 3.19513 95.617 3.19513C94.7171 3.19513 94.0678 3.78697 94.0678 4.99816C94.0678 5.88004 94.7859 6.67526 95.8294 6.67526C96.5193 6.67526 96.9692 6.47025 97.3831 6.20057L97.3881 4.09233H100.809V9.88362Z" fill="#CF261F"/>
<path d="M77.8764 9.65824H68.7686V0.422363H77.8764V2.9873H73.1242V3.83351H77.8764V6.22896H73.1242V7.08097H77.8764V9.65824Z" fill="#CF261F"/>
<path d="M54.6149 0.626628L50.7337 7.07948H54.3793V9.65749H44.9033V9.48014L48.6431 2.98655H45.0177V0.424591H54.6149V0.626628Z" fill="#CF261F"/>
<path d="M157.323 5.02208C157.323 3.85743 156.4 2.98863 155.245 2.98863H154.506V7.07888H155.245C156.4 7.07888 157.323 6.17662 157.323 5.02208ZM160.718 5.04245C160.718 7.5891 158.683 9.65674 155.794 9.65674H150.145V0.420868H155.794C158.711 0.420868 160.718 2.48851 160.718 5.04245Z" fill="#CF261F"/>
<path d="M29.3638 3.70997C29.3638 3.09925 28.9472 2.6427 28.216 2.6427H27.4313V4.79241H28.2385C29.0595 4.79241 29.3638 4.29438 29.3638 3.70997ZM33.5226 9.65751H29.9595L27.4313 6.82364V9.65751H23.0747V0.421631H28.6277C30.808 0.421631 32.2239 1.88659 32.2239 3.70997C32.2239 4.84326 31.6181 5.864 30.6624 6.44632L33.5226 9.65751Z" fill="#CF261F"/>
<path d="M8.08616 3.70997C8.08616 3.09925 7.68178 2.6427 6.93835 2.6427H6.14854V4.79241H6.95865C7.77172 4.79241 8.08616 4.29438 8.08616 3.70997ZM10.9514 3.70997C10.9514 5.5179 9.45862 6.98717 7.35711 6.98717H6.14854V9.65751H1.79199V0.421631H7.35711C9.53331 0.421631 10.9514 1.88659 10.9514 3.70997Z" fill="#CF261F"/>
<path d="M161.942 12.9719L157.928 25.3978V35.972H149.445V25.3128L145.456 12.9719H153.056L155.295 19.9351L157.556 12.9719H161.942Z" fill="#CF261F"/>
<path d="M144.771 12.9719L139.07 35.972H138.541L132.708 23.5309L126.856 35.972H126.347L120.601 12.9719H128.431L129.837 19.0089L132.508 12.7691H132.881L135.75 19.0089L136.977 12.9719H144.771Z" fill="#CF261F"/>
<path d="M98.1772 17.8282H93.2846V35.9684H84.7903V17.8282H79.918V12.9704H98.1772V17.8282Z" fill="#CF261F"/>
<path d="M16.4166 29.9983C16.4166 33.5888 13.1015 35.9712 8.77103 35.9712H0.513895V31.1833H4.73189C6.1943 31.1833 6.90735 30.3137 6.90735 29.1898C6.90735 28.2644 5.99929 27.546 5.07182 26.7718L3.55799 25.5148C1.56169 23.8529 0 22.4294 0 19.4697C0 15.2765 3.12397 12.9711 7.51312 12.9711H15.6572V17.7693H11.6724C10.2638 17.7693 9.65805 18.6316 9.65805 19.4697C9.65805 20.2703 9.96449 20.7603 10.8079 21.4858L13.6486 23.9044C15.287 25.2945 16.4166 26.9412 16.4166 29.9983Z" fill="#CF261F"/>
<path d="M116.249 24.3829C116.249 20.6207 113.386 17.4837 109.633 17.4837C105.873 17.4837 103.002 20.6207 103.002 24.3829C103.002 28.1553 105.873 31.3126 109.633 31.3126C113.386 31.3126 116.249 28.1553 116.249 24.3829ZM121.499 24.4397C121.499 30.9564 116.146 36.2112 109.666 36.2112C103.17 36.2112 97.8125 30.9564 97.8125 24.4397C97.8125 17.9351 103.17 12.6571 109.666 12.6571C116.146 12.6571 121.499 17.9351 121.499 24.4397Z" fill="#CF261F"/>
<path d="M73.5851 20.9667C73.5851 19.2511 72.1967 17.8603 70.4815 17.8603V24.0899C72.1967 24.0899 73.5851 22.6796 73.5851 20.9667ZM81.8039 35.9699H74.9887L70.4815 29.0757V35.9699H62.0098V12.9698H70.8859C75.4792 12.9698 78.7742 16.2245 78.7742 20.7588C78.7742 23.3774 77.5394 25.3418 75.6148 26.8038L81.8039 35.9699Z" fill="#CF261F"/>
<path d="M54.9294 24.3829C54.9294 20.6207 52.0584 17.4837 48.2975 17.4837C44.5425 17.4837 41.6824 20.6207 41.6824 24.3829C41.6824 28.1553 44.5425 31.3126 48.2975 31.3126C52.0584 31.3126 54.9294 28.1553 54.9294 24.3829ZM60.1671 24.4397C60.1671 30.9564 54.8164 36.2112 48.3339 36.2112C41.8404 36.2112 36.4824 30.9564 36.4824 24.4397C36.4824 17.9351 41.8404 12.6571 48.3339 12.6571C54.8164 12.6571 60.1671 17.9351 60.1671 24.4397Z" fill="#CF261F"/>
<path d="M29.6704 20.9667C29.6704 19.2612 28.3131 17.8966 26.6284 17.8603V24.0899C28.3131 24.0624 29.6704 22.6671 29.6704 20.9667ZM34.8522 20.9667C34.8522 25.3876 31.2987 28.9811 26.8922 28.9811H26.6284V35.9699H18.1465V12.9698H26.8922C31.2987 12.9698 34.8522 16.5349 34.8522 20.9667Z" fill="#CF261F"/>
</g>
<defs>
<clipPath id="clip0_19_122">
<rect width="163" height="37" fill="white"/>
</clipPath>
</defs>
</svg>
