<svg width="163" height="37" viewBox="0 0 163 37" fill="none" xmlns="http://www.w3.org/2000/svg">
<g clip-path="url(#clip0_19_9)">
<path d="M163 0H0V37H163V0Z" fill="#2C273D"/>
<path d="M134.845 10.3718H148.589V13.7923H143.759V27.3491H139.676V13.7923H134.845V10.3718ZM75.8469 27.739C80.4257 27.739 83.2411 25.1791 83.2411 22.0308C83.2411 19.9859 82.0927 18.4117 79.381 17.404L77.262 16.6169C75.269 15.8813 74.6022 15.4105 74.6022 14.6235C74.6022 13.6893 75.4468 13.1008 77.0916 13.1008C78.529 13.1597 79.9293 13.5936 81.1518 14.3587L82.4928 11.2618C80.8925 10.4306 79.1217 9.98927 77.3139 9.98192C73.3574 9.98192 70.542 12.1004 70.542 15.3223C70.542 17.5585 71.9126 19.1326 74.7207 20.1698L76.5359 20.8318C78.4252 21.5233 79.1736 22.0382 79.1736 22.8473C79.1736 23.9066 77.9066 24.5465 76.1877 24.5465C74.5355 24.495 72.9499 23.9213 71.6607 22.8988L70.416 26.2163C72.0238 27.2682 73.9205 27.8052 75.8469 27.739ZM109.58 24.3185C106.565 24.3185 104.824 21.663 104.824 18.7869C104.824 15.7121 106.439 13.4024 109.529 13.4024C112.537 13.4024 114.285 15.9107 114.285 18.8899C114.285 21.869 112.766 24.3185 109.58 24.3185ZM109.329 27.739C115.374 27.739 118.486 23.4284 118.486 18.831C118.486 14.4028 115.478 9.97456 109.625 9.97456C104.876 9.75389 100.838 13.4024 100.615 18.1175C100.601 18.3529 100.601 18.5883 100.615 18.831C100.623 23.502 103.705 27.739 109.329 27.739ZM124.784 19.0811V13.5422H126.503C128.822 13.5422 129.615 14.7265 129.615 16.3006C129.615 17.8748 128.548 19.0811 126.303 19.0811H124.784ZM126.992 22.2515L130.089 27.3418H134.757L130.978 21.1481C132.719 20.1404 133.808 18.3014 133.83 16.3006C133.83 12.9758 131.667 10.3718 126.584 10.3718H120.709V27.3491H124.791V22.2589H126.992V22.2515ZM91.4208 10.3718H85.5454V27.3491H89.6278V22.2589H91.4949C96.0737 22.2589 98.6669 19.3533 98.6669 16.308C98.6669 12.9758 96.496 10.3718 91.4208 10.3718ZM89.6278 19.0811V13.5422H91.3467C93.6657 13.5422 94.4585 14.7265 94.4585 16.3006C94.4585 17.8748 93.3842 19.0811 91.1466 19.0811H89.6278Z" fill="#EBFF14"/>
<path d="M54.1086 19.0811V13.5421H55.8275C58.1465 13.5421 58.9393 14.7264 58.9393 16.3006C58.9393 17.8747 57.865 19.0811 55.6274 19.0811H54.1086ZM55.9016 10.3718H50.0261V27.3491H54.1086V22.2588H55.9756C60.5545 22.2588 63.1476 19.3533 63.1476 16.3079C63.1476 12.9757 60.9842 10.3718 55.9016 10.3718ZM28.1545 10.3718H14.4106V13.7922H19.2414V27.3491H23.3238V13.7922H28.1545V10.3718ZM39.0903 20.5081L43.7655 10.3718H48.1739L40.0239 27.3491H38.1494L29.9994 10.3718H34.4078L39.0903 20.5081Z" fill="#EBFF14"/>
</g>
<defs>
<clipPath id="clip0_19_9">
<rect width="163" height="37" fill="white"/>
</clipPath>
</defs>
</svg>
