<svg width="163" height="26" viewBox="0 0 163 26" fill="none" xmlns="http://www.w3.org/2000/svg">
<path d="M43.2008 8.16786C43.0802 7.56321 42.9596 6.95856 42.7788 6.41436C42.0552 4.53996 40.6685 3.33066 38.739 2.96786C38.3773 2.9074 38.0758 2.84693 37.714 2.84693C37.1714 2.78646 36.6287 2.726 36.0861 2.726C35.5435 2.66553 35.0008 2.66554 34.5185 2.60507C34.0964 2.54461 33.6743 2.54461 33.3126 2.48414C32.8905 2.42367 32.5287 2.42367 32.1067 2.36321C31.2626 2.24228 30.2376 2.726 29.8758 3.75391C29.7552 4.05623 29.6949 4.35856 29.6949 4.72135C29.6346 5.56786 29.514 6.41435 29.4537 7.26085C29.3935 8.16783 29.2729 9.07485 29.2126 9.98175C29.1523 10.7074 29.092 11.4934 29.0317 12.219C28.9714 13.1865 28.9111 14.0935 28.7905 15.0609C28.7302 15.9679 28.6699 16.8748 28.6096 17.7818C28.6096 17.9632 28.6096 18.0841 28.5493 18.2655C28.5493 18.3865 28.489 18.4469 28.3685 18.5074C28.2479 18.5074 28.067 18.4469 28.067 18.2655C28.0067 18.1446 28.0067 18.0237 28.0067 17.9028C27.6449 16.0283 27.2832 14.0935 26.9214 12.219C26.5596 10.4655 26.2582 8.77245 25.8964 7.01895C25.7155 6.23291 25.5346 5.50735 25.1729 4.78175C24.6302 3.69335 23.8464 2.84685 22.8214 2.30265C21.2537 1.5166 19.6861 1.39567 17.9979 1.81892C17.0935 2.06078 16.3699 2.5445 15.8273 3.27012C15.4052 3.8143 15.1037 4.35852 14.9229 5.02362C14.6817 5.74921 14.6214 6.47482 14.5611 7.20042C14.5008 8.16786 14.3802 9.13532 14.3199 10.1028C14.1993 11.3725 14.0787 12.5818 13.9582 13.8516C13.8979 14.819 13.7773 15.8469 13.717 16.8144C13.6567 17.6004 13.5964 18.4469 13.4758 19.233C13.4758 19.5353 13.4155 19.8376 13.4155 20.0795C13.4155 20.2609 13.2949 20.3818 13.114 20.3818C12.8729 20.4423 12.7523 20.3214 12.692 20.0795C12.6317 19.8376 12.5714 19.5958 12.5111 19.3539C12.3302 18.5679 12.1493 17.7214 11.9685 16.9353C11.7876 16.0888 11.5464 15.3028 11.3655 14.4562C11.064 13.3074 10.8229 12.1586 10.5214 11.0097C10.2802 10.1028 10.039 9.13532 9.79786 8.22832C9.55665 7.32134 9.31547 6.35392 9.0743 5.44692C8.89341 4.7818 8.71253 4.11672 8.59194 3.51202C8.35077 2.66551 7.92871 1.93992 7.26544 1.33522C6.48162 0.670113 5.57724 0.246823 4.49194 0.0654233C3.28604 -0.115967 2.14044 0.0654243 1.11544 0.791003C0.633093 1.15379 0.271322 1.57704 0.0904425 2.1817C-0.0301475 2.60496 -0.0301475 3.08868 0.0904425 3.5119C0.271322 4.11655 0.452212 4.7817 0.633092 5.3863C0.874272 6.11189 1.11544 6.8375 1.29633 7.6235C1.5375 8.47002 1.83897 9.377 2.08015 10.2235C2.32133 11.0095 2.5625 11.7351 2.74339 12.5212C2.98456 13.2467 3.16544 14.0328 3.40662 14.7584C3.5875 15.363 3.76839 16.0281 3.94927 16.6328C4.13015 17.3584 4.37133 18.0235 4.55221 18.7491C4.73309 19.3537 4.91397 19.9584 5.09485 20.5026C5.33603 21.2281 5.51691 21.9537 5.81838 22.6793C6.18015 23.4653 6.6625 24.1305 7.32578 24.6746C8.35078 25.4607 9.49638 25.8839 10.7023 25.9444C11.3655 26.0049 12.089 25.9444 12.7523 25.8839C13.9582 25.7026 15.0435 25.4002 16.0685 24.7351C17.0332 24.1305 17.8773 23.2839 18.3596 22.1956C18.7214 21.47 18.9023 20.6235 18.9626 19.8374C19.0832 18.9909 19.1435 18.0839 19.2037 17.2374C19.3243 16.0886 19.4449 14.9398 19.5655 13.7909C19.6861 12.8235 19.7464 11.9165 19.8067 10.9491C19.9273 9.8607 19.9876 8.7723 20.1082 7.7444C20.1082 7.56301 20.1685 7.38161 20.1685 7.20022C20.1685 7.01882 20.289 6.89789 20.4096 6.89789C20.5905 6.89789 20.6508 6.95836 20.7111 7.13975C20.7111 7.20022 20.7111 7.26068 20.7714 7.26068C20.892 7.68394 20.9523 8.16766 21.0729 8.59088C21.3743 9.92108 21.6155 11.1909 21.917 12.5212C22.1582 13.7305 22.4596 14.8793 22.7008 16.0886C22.942 17.2374 23.2435 18.4467 23.4846 19.5956C23.6052 20.2002 23.8464 20.7444 24.1479 21.2281C24.8714 22.3165 25.8361 22.8607 27.1023 22.9212C27.7655 22.9816 28.3685 22.9212 28.9714 22.6793C29.8155 22.4374 30.539 22.0142 31.142 21.4095C31.8655 20.6839 32.3479 19.777 32.5288 18.7491C32.6493 18.2049 32.7096 17.6002 32.7699 17.056C32.8905 15.8467 33.0111 14.6979 33.1317 13.4886C33.2523 12.5212 33.3126 11.4933 33.4332 10.5258C33.4935 9.86067 33.5537 9.19558 33.614 8.46998C33.6743 8.04673 33.7346 7.62347 33.7346 7.13978H33.9155C35.0611 7.13978 36.1464 7.20025 37.292 7.20025C37.5935 7.20025 37.8346 7.20025 38.1361 7.26071C40.1861 7.44211 39.8846 11.977 38.317 12.2188C38.0155 12.2793 37.714 12.2793 37.4126 12.3398C36.8699 12.4002 36.3876 12.4002 35.8449 12.4607C35.4832 12.4607 35.1817 12.6421 35.0008 12.9444C34.8802 13.0653 34.7596 13.2467 34.6993 13.4281C34.3979 14.0933 34.3376 14.7584 34.5185 15.4235C34.5787 15.7258 34.6993 16.0281 34.9405 16.27C35.1817 16.5119 35.4832 16.6328 35.7846 16.6328C35.9655 16.6328 36.0861 16.5723 36.267 16.5723C36.8699 16.5119 37.5332 16.3909 38.1361 16.3305C38.5582 16.27 38.9199 16.2095 39.342 16.0886C40.9096 15.6049 41.9949 14.577 42.5979 13.0049C42.8993 12.1584 43.0802 11.2514 43.0802 10.3444C43.3214 9.61884 43.3214 8.89336 43.2008 8.16786Z" fill="#176C00"/>
<path d="M50 14.4001C51.025 14.8233 52.1706 15.1256 53.6779 15.1256C55.3058 15.1256 56.0294 14.8233 56.0294 13.8559C56.0294 13.0699 55.547 12.7675 54.4618 12.1024L51.9897 10.5908C50.9044 9.92571 50.1809 9.07923 50.1809 7.62803C50.1809 5.69313 51.4471 4.78613 54.1603 4.78613C55.6677 4.78613 56.5721 5.08845 57.4765 5.45124V7.26524C56.5118 6.78151 55.4868 6.60012 54.1603 6.60012C52.7132 6.60012 52.1103 6.90244 52.1103 7.74892C52.1103 8.41403 52.4721 8.71636 53.2559 9.13962L55.8485 10.7117C57.1147 11.4978 58.0191 12.2233 58.0191 13.8559C58.0191 15.9117 56.6926 16.9396 53.6779 16.9396C52.05 16.9396 50.9044 16.6373 50.0603 16.2745V14.4001L50 14.4001Z" fill="black"/>
<path d="M59.1045 11.3768C59.1045 8.71632 60.7325 7.50702 63.2045 7.50702C65.9781 7.50702 67.3648 8.71632 67.3648 11.3768V12.9489C67.3648 15.428 66.2192 16.8791 63.6266 16.8791C62.2398 16.8791 61.3957 16.3954 60.9737 15.6698V20.2652H59.1045V11.3768ZM65.556 11.4373C65.556 10.0466 65.1942 9.26049 63.2648 9.26049C61.3957 9.26049 60.9737 10.0465 60.9737 11.4373V13.0094C60.9737 14.4001 61.3957 15.1861 63.2648 15.1861C65.1339 15.1861 65.556 14.4605 65.556 13.0094V11.4373Z" fill="black"/>
<path d="M68.3296 13.0094V11.4373C68.3296 8.95824 69.6561 7.50714 72.4899 7.50714C75.4444 7.50714 76.5899 8.89784 76.5899 11.4373V13.0094C76.5899 15.4884 75.2635 16.9396 72.4899 16.9396C69.5958 16.8791 68.3296 15.5489 68.3296 13.0094ZM74.7811 11.4373C74.7811 10.0466 74.3591 9.26054 72.4899 9.26054C70.6208 9.26054 70.1988 10.0466 70.1988 11.4373V13.0094C70.1988 14.4001 70.6208 15.1861 72.4899 15.1861C74.3591 15.1861 74.7811 14.4605 74.7811 13.0094V11.4373Z" fill="black"/>
<path d="M79.6656 16.6981H77.7964V10.712C77.7964 8.65625 78.8817 7.50745 81.2332 7.50745C81.7156 7.50745 82.017 7.56792 82.3788 7.62838V9.38188C82.1376 9.26095 81.7759 9.20049 81.2332 9.20049C79.967 9.20049 79.6656 9.74467 79.6656 10.7726V16.6981Z" fill="black"/>
<path d="M82.2573 7.9908L83.8249 7.68848L84.1264 5.33038H85.6337V7.68848H88.9499V9.44198H85.694V13.5537C85.694 14.763 86.2367 15.1257 87.0808 15.1257C87.9249 15.1257 88.769 14.9444 89.3117 14.763V16.5164C88.7087 16.7583 87.9852 16.8792 87.0808 16.8792C85.2117 16.8792 83.8249 16.0932 83.8249 13.5537V9.44198H82.2573V7.9908Z" fill="black"/>
<path d="M90.0352 13.0094V11.4373C90.0352 8.95824 91.3617 7.50714 94.1955 7.50714C97.1499 7.50714 98.2955 8.89784 98.2955 11.4373V13.0094C98.2955 15.4884 96.969 16.9396 94.1955 16.9396C91.2411 16.8791 90.0352 15.5489 90.0352 13.0094ZM96.4264 11.4373C96.4264 10.0466 96.0043 9.26054 94.1352 9.26054C92.2661 9.26054 91.844 10.0466 91.844 11.4373V13.0094C91.844 14.4001 92.2661 15.1861 94.1352 15.1861C96.0043 15.1861 96.4264 14.4605 96.4264 13.0094V11.4373Z" fill="black"/>
<path d="M101.551 14.4001C101.672 15.1257 101.853 15.3071 102.275 15.3071C102.697 15.3071 102.878 15.1257 102.998 14.4001L103.722 9.50244C103.903 8.23264 104.385 7.74894 105.651 7.74894C106.797 7.74894 107.4 8.1722 107.581 9.50244L108.304 14.4001C108.425 15.1257 108.606 15.3071 109.028 15.3071C109.45 15.3071 109.631 15.1257 109.751 14.4001L110.716 7.68854H112.585L111.56 14.4605C111.319 15.9722 110.837 16.8791 108.968 16.8791C107.34 16.8791 106.857 16.0326 106.676 14.4605L106.073 10.0466C105.953 9.44199 105.893 9.26059 105.591 9.26059C105.29 9.26059 105.229 9.38152 105.169 10.0466L104.566 14.4605C104.325 15.9722 103.903 16.8791 102.275 16.8791C100.466 16.8791 99.9233 16.0326 99.6822 14.4605L98.6572 7.68854H100.526L101.551 14.4001Z" fill="black"/>
<path d="M120.604 12.8883H114.816V13.3115C114.816 14.6418 115.6 15.186 117.409 15.186C118.434 15.186 119.82 14.9441 120.484 14.6418V16.3953C119.639 16.7581 118.434 16.9394 117.409 16.9394C114.394 16.9394 112.947 15.8511 112.947 13.0697V11.4976C112.947 9.19994 113.911 7.56744 116.986 7.56744C119.459 7.56744 120.845 8.83724 120.845 11.3162C120.785 11.679 120.785 12.4046 120.604 12.8883ZM114.816 11.3767H119.036V10.893C119.036 9.68371 118.253 9.07901 116.926 9.07901C115.6 9.07901 114.816 9.6232 114.816 10.893V11.3767Z" fill="black"/>
<path d="M124.041 16.6981H122.172V6.96321C122.172 5.51201 122.775 4.90741 124.222 4.90741H129.89V6.72141H124.765C124.283 6.72141 124.041 6.9028 124.041 7.38652V9.80512H129.166V11.6191H124.041V16.6981Z" fill="black"/>
<path d="M137.547 13.9771C137.547 15.9725 136.342 16.8794 133.689 16.8794C131.337 16.8794 130.011 16.0329 130.011 14.098C130.011 12.0422 131.458 11.3771 133.689 11.3771H135.678V10.4702C135.678 9.32136 134.834 9.07946 133.568 9.07946C132.483 9.07946 131.578 9.20039 130.975 9.44225V7.80965C131.639 7.56779 132.483 7.50732 133.448 7.50732C135.859 7.50732 137.547 8.2329 137.547 10.4701V13.9771ZM135.678 12.7678H133.689C132.483 12.7678 131.88 13.1306 131.88 14.0376C131.88 15.126 132.724 15.3074 133.628 15.3074C134.774 15.3074 135.678 15.126 135.678 13.9167V12.7678Z" fill="black"/>
<path d="M138.874 4H140.743V16.698H138.874V4ZM144.36 7.6884H146.712L143.516 11.2558C143.335 11.4372 143.154 11.679 143.154 11.9209C143.154 12.1628 143.335 12.3442 143.516 12.5256L147.074 16.6372H144.722L142.009 13.493C141.406 12.8278 141.285 12.3442 141.285 11.8C141.285 11.2558 141.406 10.893 142.009 10.2279L144.36 7.6884Z" fill="black"/>
<path d="M146.712 7.9908L148.28 7.68848L148.582 5.33038H150.149V7.68848H153.465V9.44198H150.149V13.5537C150.149 14.763 150.692 15.1257 151.536 15.1257C152.32 15.1257 153.224 14.9444 153.767 14.763V16.5164C153.164 16.7583 152.44 16.8792 151.536 16.8792C149.667 16.8792 148.28 16.0932 148.28 13.5537V9.44198H146.712V7.9908Z" fill="black"/>
<path d="M157.623 14.3401C157.804 15.1262 158.045 15.2471 158.588 15.2471C159.01 15.2471 159.251 15.1262 159.432 14.3401L160.939 7.6889H162.808L160.638 16.6983C160.035 19.2983 158.648 20.7494 156.116 20.6889L155.754 19.0564C157.623 19.1169 158.347 18.0889 158.769 16.6983C158.588 16.7587 158.226 16.8192 157.925 16.8192C156.478 16.8192 156.055 15.8517 155.754 14.5215L154.005 7.6889H155.875L157.623 14.3401Z" fill="black"/>
</svg>
